HIERARCHY
ROOT Hips
{
 OFFSET 0.000000 0.000000 0.000000
 CHANNELS 6 Xposition Yposition Zposition Yrotation Xrotation Zrotation
 JOINT Chest
 {
  OFFSET 0.000000 9.585900 0.002600
  CHANNELS 3 Yrotation Xrotation Zrotation
  JOINT Chest2
  {
   OFFSET 0.000000 9.601200 -0.005300
   CHANNELS 3 Yrotation Xrotation Zrotation
   JOINT Chest3
   {
    OFFSET 0.000000 9.561800 0.000000
    CHANNELS 3 Yrotation Xrotation Zrotation
    JOINT Chest4
    {
     OFFSET 0.000000 9.552100 0.000000
     CHANNELS 3 Yrotation Xrotation Zrotation
     JOINT Neck
     {
      OFFSET 0.000000 14.453000 0.000000
      CHANNELS 3 Yrotation Xrotation Zrotation
      JOINT Head
      {
       OFFSET 0.000000 8.936500 -0.011300
       CHANNELS 3 Yrotation Xrotation Zrotation
       End Site
       {
        OFFSET 0.000000 17.073600 -0.006000
       }
      }
     }
     JOINT RightCollar
     {
      OFFSET -2.921100 9.558500 0.000000
      CHANNELS 3 Yrotation Xrotation Zrotation
      JOINT RightShoulder
      {
       OFFSET -13.519700 0.000000 0.000000
       CHANNELS 3 Yrotation Xrotation Zrotation
       JOINT RightElbow
       {
        OFFSET 0.000000 -29.696600 0.000000
        CHANNELS 3 Yrotation Xrotation Zrotation
        JOINT RightWrist
        {
         OFFSET 0.000000 -24.004700 0.000000
         CHANNELS 3 Yrotation Xrotation Zrotation
         End Site
         {
          OFFSET 0.000000 -17.728500 0.000000
         }
        }
       }
      }
     }
     JOINT LeftCollar
     {
      OFFSET 2.921100 9.558500 0.000000
      CHANNELS 3 Yrotation Xrotation Zrotation
      JOINT LeftShoulder
      {
       OFFSET 13.519700 0.000000 0.000000
       CHANNELS 3 Yrotation Xrotation Zrotation
       JOINT LeftElbow
       {
        OFFSET 0.000000 -29.696600 0.000000
        CHANNELS 3 Yrotation Xrotation Zrotation
        JOINT LeftWrist
        {
         OFFSET 0.000000 -24.004700 0.000000
         CHANNELS 3 Yrotation Xrotation Zrotation
         End Site
         {
          OFFSET 0.000000 -17.728500 0.000000
         }
        }
       }
      }
     }
    }
   }
  }
 }
 JOINT RightHip
 {
  OFFSET -7.771700 -0.012900 -0.001300
  CHANNELS 3 Yrotation Xrotation Zrotation
  JOINT RightKnee
  {
   OFFSET 0.000000 -40.869800 0.001200
   CHANNELS 3 Yrotation Xrotation Zrotation
   JOINT RightAnkle
   {
    OFFSET 0.000000 -39.717900 0.002100
    CHANNELS 3 Yrotation Xrotation Zrotation
    JOINT RightToe
    {
     OFFSET 0.000000 -4.965400 11.033500
     CHANNELS 3 Yrotation Xrotation Zrotation
     End Site
     {
      OFFSET 0.000000 -1.423100 5.872300
     }
    }
   }
  }
 }
 JOINT LeftHip
 {
  OFFSET 7.771700 -0.012900 -0.001300
  CHANNELS 3 Yrotation Xrotation Zrotation
  JOINT LeftKnee
  {
   OFFSET 0.000000 -40.869800 0.001200
   CHANNELS 3 Yrotation Xrotation Zrotation
   JOINT LeftAnkle
   {
    OFFSET 0.000000 -39.717900 0.002100
    CHANNELS 3 Yrotation Xrotation Zrotation
    JOINT LeftToe
    {
     OFFSET 0.000000 -4.965400 11.033500
     CHANNELS 3 Yrotation Xrotation Zrotation
     End Site
     {
      OFFSET 0.000000 -1.423100 5.872300
     }
    }
   }
  }
 }
}
MOTION
Frames: 16
Frame Time: 0.008333
-47.408150 43.640537 25.167389 175.613938 -22.269943 -1.141366 -1.036775 16.412651 4.155714 -0.198739 1.726575 0.496279 -0.315546 2.882872 0.828270 -1.059271 14.552952 4.070685 0.565421 17.589426 -4.820276 1.737272 -7.048326 -5.309635 7.829812 3.888166 -4.447671 -6.680324 -8.950767 -4.320189 150.461670 -72.531924 -138.107575 -0.465697 2.726842 -33.596015 -13.275973 -0.405663 -5.163135 19.691470 4.290156 4.743582 174.127135 -73.062821 167.828780 14.281120 13.993834 34.645124 -4.331475 -69.918568 14.940355 -143.742584 65.547376 -143.943661 -12.613539 -24.685667 9.929079 0.502416 -1.084568 0.193059 5.843177 -57.964076 -2.817581 176.196507 61.510414 176.340608 -3.183188 -38.287071 4.754390 0.000805 0.149138 -0.013898
-47.406332 43.640296 25.171834 175.610090 -22.259577 -1.133857 -1.003731 16.425775 4.166921 -0.214744 1.715488 0.490857 -0.299035 2.900189 0.830210 -1.050547 14.550318 4.069604 0.544248 17.561971 -4.805329 1.711880 -7.098546 -5.239449 7.828590 3.892901 -4.453215 -6.697753 -8.953749 -4.316017 150.527932 -72.525131 -138.189104 -0.506906 2.723188 -33.616632 -13.247044 -0.379139 -5.185309 19.682056 4.245973 4.694476 174.167877 -73.093764 167.848052 14.333300 14.000720 34.772433 -4.324740 -69.936465 14.925609 -143.691593 65.539581 -143.886757 -12.571827 -24.646697 9.906075 0.503297 -1.113003 0.196129 5.828291 -57.974249 -2.817242 176.187792 61.515347 176.323434 -3.176187 -38.286498 4.747370 -0.001424 0.152915 -0.011059
-47.406953 43.639699 25.177854 175.612268 -22.240368 -1.108771 -0.980314 16.427300 4.158033 -0.214093 1.720346 0.492142 -0.296013 2.903137 0.829635 -1.073239 14.528158 4.064410 0.555070 17.563685 -4.787006 1.680222 -7.129110 -5.202832 7.909231 3.942058 -4.489514 -6.728394 -8.926250 -4.311785 150.752530 -72.563719 -138.389729 -0.453106 2.682192 -33.726220 -13.219953 -0.357163 -5.212434 19.702484 4.224783 4.634782 174.236546 -73.107023 167.836634 14.370072 14.005180 34.865673 -4.334838 -69.958089 14.910154 -143.611389 65.528868 -143.830386 -12.514766 -24.614609 9.890208 0.498609 -1.128722 0.195774 5.840908 -57.993375 -2.869732 176.166485 61.524332 176.299904 -3.157228 -38.275655 4.728717 -0.001196 0.153054 -0.012765
-47.405481 43.639248 25.184892 175.622149 -22.218109 -1.095246 -0.963407 16.424475 4.156283 -0.208893 1.723443 0.492526 -0.293310 2.906659 0.829410 -1.059509 14.537336 4.062621 0.546789 17.558190 -4.740548 1.643807 -7.165519 -5.216736 7.901291 3.917291 -4.500989 -6.687781 -8.867388 -4.348355 150.933755 -72.576886 -138.568878 -0.481271 2.660316 -33.812424 -13.232668 -0.369430 -5.223604 19.724219 4.207463 4.564815 174.328760 -73.103205 167.797810 14.391695 14.007932 34.937347 -4.366010 -69.979989 14.921703 -143.508291 65.514325 -143.748217 -12.475418 -24.590193 9.876845 0.483862 -1.128644 0.199348 5.816910 -58.020882 -2.910796 176.111270 61.530264 176.251886 -3.126655 -38.260162 4.683419 -0.001547 0.150614 -0.014441
-47.403194 43.639252 25.192108 175.637474 -22.197197 -1.086645 -0.959599 16.417627 4.151824 -0.199969 1.731934 0.497154 -0.290531 2.909989 0.829202 -1.044025 14.545884 4.061268 0.511848 17.528107 -4.723367 1.619606 -7.183039 -5.171554 7.869815 3.882106 -4.503857 -6.635461 -8.822393 -4.396226 151.077768 -72.589352 -138.697530 -0.515113 2.641062 -33.874056 -13.246799 -0.382602 -5.236877 19.740667 4.188438 4.484182 174.447318 -73.085570 167.730968 14.402708 14.004543 34.993072 -4.405588 -70.003337 14.939023 -143.415991 65.499261 -143.674355 -12.441367 -24.551373 9.864282 0.462127 -1.116143 0.204918 5.823126 -58.046014 -2.952001 176.087325 61.538050 176.236396 -3.119683 -38.246133 4.672114 0.001228 0.150942 -0.016773
-47.399722 43.640213 25.198246 175.646425 -22.185595 -1.082638 -0.944215 16.424295 4.154570 -0.171238 1.755803 0.500296 -0.286333 2.916013 0.828918 -1.059890 14.530049 4.058154 0.485592 17.500675 -4.702402 1.596066 -7.193502 -5.128721 7.875657 3.860882 -4.519114 -6.615934 -8.798811 -4.429953 151.210588 -72.608700 -138.804551 -0.561260 2.626327 -33.885990 -13.258175 -0.393930 -5.245680 19.748153 4.164811 4.395809 174.689835 -73.076895 167.495050 14.441122 13.955079 35.081540 -4.422905 -70.017411 14.945461 -143.345013 65.489659 -143.608440 -12.425120 -24.516420 9.861784 0.452605 -1.117513 0.201857 5.799605 -58.060955 -2.967239 176.061191 61.544769 176.215219 -3.110300 -38.235672 4.660579 0.008412 0.151599 -0.028319
-47.398268 43.641937 25.203295 175.660918 -22.180804 -1.071241 -0.934715 16.442414 4.146889 -0.184525 1.741762 0.499590 -0.275244 2.929159 0.828564 -1.043658 14.536878 4.059556 0.464810 17.487457 -4.675676 1.567471 -7.209750 -5.094232 7.917602 3.853788 -4.566145 -6.636591 -8.791695 -4.439627 151.332968 -72.632257 -138.892888 -0.574377 2.620131 -33.896326 -13.275219 -0.404423 -5.259095 19.744607 4.136605 4.305249 174.951389 -73.071447 167.257100 14.468827 13.888657 35.141448 -4.412615 -70.025503 14.918955 -143.305304 65.484564 -143.572784 -12.433171 -24.486149 9.880032 0.462200 -1.117400 0.187895 5.745861 -58.067490 -2.977356 176.038668 61.553392 176.181364 -3.082093 -38.223431 4.624493 0.002059 0.149971 -0.022902
-47.397912 43.644136 25.207931 175.674791 -22.178390 -1.058424 -0.937376 16.458454 4.131171 -0.186402 1.733090 0.501525 -0.270593 2.941246 0.826770 -0.999757 14.572702 4.058107 0.428281 17.446036 -4.642155 1.539696 -7.224901 -5.061596 7.882962 3.793420 -4.569655 -6.586647 -8.780645 -4.502514 151.446558 -72.655211 -138.971796 -0.585153 2.619574 -33.963738 -13.317882 -0.447779 -5.248905 19.736897 4.111899 4.210939 174.957003 -72.993747 167.373052 14.413039 13.918266 35.095763 -4.394671 -70.033799 14.889100 -143.289774 65.477667 -143.561750 -12.434729 -24.466600 9.885700 0.462392 -1.116731 0.186006 5.726165 -58.069450 -3.003774 176.022553 61.563346 176.161078 -3.068210 -38.211518 4.604340 0.002766 0.148966 -0.021903
-47.397005 43.646415 25.213141 175.679268 -22.172384 -1.053336 -0.933893 16.471299 4.124616 -0.181718 1.734247 0.502393 -0.273097 2.942534 0.825749 -0.998291 14.564033 4.060597 0.425008 17.451992 -4.624604 1.520046 -7.237006 -5.034447 7.892575 3.782094 -4.582077 -6.532401 -8.775424 -4.571751 151.534884 -72.675658 -139.032374 -0.606799 2.622156 -34.026311 -13.323563 -0.456320 -5.249406 19.727831 4.095637 4.107307 175.033496 -72.930002 167.369302 14.383183 13.907285 35.073472 -4.382657 -70.042135 14.871534 -143.293219 65.484433 -143.558893 -12.436405 -24.458148 9.880635 0.462691 -1.108950 0.187112 5.697126 -58.076609 -3.006578 176.008992 61.571051 176.141899 -3.053338 -38.200918 4.582111 0.003098 0.147319 -0.021468
-47.397123 43.648729 25.218635 175.681753 -22.163119 -1.050922 -0.932994 16.482259 4.119615 -0.174339 1.734187 0.502267 -0.278542 2.944178 0.824723 -0.992448 14.554767 4.063891 0.421747 17.458752 -4.611473 1.490471 -7.237645 -4.986779 7.937754 3.776971 -4.617767 -6.512183 -8.777910 -4.618949 151.579479 -72.692379 -139.056461 -0.577022 2.633201 -33.900299 -13.312235 -0.453328 -5.277074 19.693811 4.055584 4.026146 175.158151 -72.879037 167.294670 14.367299 13.869034 35.047466 -4.376866 -70.053814 14.860375 -143.327215 65.500152 -143.585025 -12.438065 -24.453287 9.872953 0.460681 -1.104485 0.186825 5.665311 -58.087704 -3.004476 175.990813 61.578125 176.117800 -3.041870 -38.190368 4.566019 0.003513 0.145373 -0.021160
-47.401965 43.649231 25.228343 175.662460 -22.123267 -1.024447 -0.921989 16.464136 4.095514 -0.169626 1.732337 0.504593 -0.281352 2.947125 0.820791 -0.979893 14.575786 4.051221 0.417551 17.431340 -4.583787 1.485844 -7.251787 -4.980661 7.961933 3.731098 -4.625977 -6.504902 -8.777503 -4.638410 151.526746 -72.678239 -138.942847 -0.556341 2.645068 -33.829440 -13.305829 -0.474838 -5.280108 19.656742 4.009566 3.944781 175.275100 -72.825360 167.220773 14.349378 13.828295 35.002863 -4.253053 -70.096973 14.739252 -143.400105 65.535769 -143.636471 -12.416624 -24.482723 9.869158 0.429361 -1.068947 0.174650 5.701514 -58.127861 -3.052294 175.962306 61.589325 176.086347 -3.035454 -38.176444 4.555104 0.006069 0.145028 -0.018505
-47.407868 43.651392 25.233916 175.654136 -22.107573 -1.004536 -0.922894 16.470993 4.071517 -0.169942 1.750321 0.499395 -0.276442 2.918663 0.828230 -0.976294 14.570264 4.052047 0.395071 17.459548 -4.577578 1.496269 -7.284999 -4.979099 7.983428 3.721337 -4.643766 -6.419313 -8.785966 -4.735291 151.542452 -72.700065 -138.971500 -0.540876 2.659796 -33.781304 -13.298766 -0.471429 -5.311167 19.636454 3.979623 3.921771 175.206926 -72.751367 167.315627 14.331215 13.789870 34.943483 -4.156005 -70.115318 14.640616 -143.435454 65.556671 -143.661176 -12.397695 -24.491857 9.873200 0.400642 -1.056554 0.164323 5.719132 -58.140882 -3.089387 175.934503 61.599416 176.055530 -3.039167 -38.164188 4.551449 0.008202 0.142729 -0.017287
-47.414763 43.654108 25.237889 175.653244 -22.099534 -0.990786 -0.928203 16.473966 4.054122 -0.173217 1.767561 0.493878 -0.272281 2.902776 0.832999 -0.974002 14.584896 4.043994 0.395306 17.441910 -4.565733 1.479853 -7.286248 -4.958344 8.008144 3.687291 -4.654816 -6.325551 -8.795861 -4.837099 151.553556 -72.719383 -138.999802 -0.522329 2.678088 -33.723958 -13.294600 -0.491245 -5.327679 19.589696 3.941510 3.822982 175.399833 -72.695696 167.155259 14.311277 13.755158 34.874325 -4.096095 -70.124705 14.575685 -143.440880 65.566865 -143.665081 -12.381978 -24.491126 9.877727 0.383879 -1.054975 0.159069 5.711693 -58.147172 -3.111994 175.905678 61.607735 176.017152 -3.033397 -38.150829 4.540460 0.009590 0.138332 -0.015336
-47.421915 43.657162 25.240696 175.657482 -22.096450 -0.985557 -0.935780 16.481346 4.043650 -0.172954 1.768090 0.493277 -0.273697 2.915558 0.828987 -0.975478 14.611362 4.024362 0.407548 17.401619 -4.540121 1.465919 -7.288717 -4.942718 8.037683 3.627121 -4.655242 -6.253614 -8.804400 -4.913796 151.537266 -72.723126 -138.976870 -0.505468 2.693633 -33.661914 -13.310243 -0.534933 -5.356682 19.561961 3.896592 3.759276 175.585832 -72.637828 167.000274 14.288522 13.724655 34.796368 -4.059875 -70.128158 14.528725 -143.451461 65.575176 -143.671753 -12.363454 -24.485178 9.873504 0.372649 -1.060983 0.158335 5.690169 -58.149547 -3.123080 175.878504 61.614180 175.980653 -3.027791 -38.138041 4.538727 0.012370 0.133167 -0.021357
-47.432413 43.658968 25.245697 175.645680 -22.074969 -0.961990 -0.939120 16.501343 4.005459 -0.163596 1.737681 0.505719 -0.275428 2.927737 0.823954 -0.981391 14.623635 4.008709 0.403797 17.391209 -4.529431 1.468113 -7.309168 -4.927249 8.064717 3.583674 -4.660024 -6.183649 -8.819126 -4.983827 151.524189 -72.728647 -138.951849 -0.490278 2.701735 -33.604170 -13.302488 -0.564567 -5.343925 19.514704 3.874606 3.679293 175.676376 -72.572270 166.931857 14.263910 13.700464 34.712409 -3.939608 -70.152028 14.393320 -143.491846 65.598134 -143.705198 -12.290736 -24.485163 9.867637 0.316467 -1.063214 0.142924 5.709593 -58.167753 -3.161294 175.855656 61.623589 175.944212 -3.024126 -38.126223 4.539082 0.012440 0.132324 -0.016678
-47.441230 43.660337 25.251249 175.632815 -22.047521 -0.952492 -0.933344 16.492081 3.990603 -0.168428 1.751620 0.499479 -0.272093 2.920552 0.827125 -0.980094 14.619304 4.004003 0.409233 17.379262 -4.520911 1.438898 -7.321628 -4.928978 8.084161 3.555514 -4.672189 -6.118626 -8.838019 -5.045175 151.525078 -72.736772 -138.926665 -0.474616 2.703021 -33.556488 -13.297117 -0.582445 -5.342773 19.459986 3.852920 3.604034 175.757372 -72.506482 166.866808 14.240133 13.682014 34.630547 -3.909179 -70.180351 14.367185 -143.459086 65.608759 -143.684341 -12.250868 -24.464380 9.866192 0.307365 -1.068748 0.141362 5.685871 -58.196664 -3.163133 175.831627 61.629005 175.902252 -3.004865 -38.116956 4.525181 0.011465 0.130773 -0.019054
